<?xml version="1.0" encoding="UTF-8" standalone="no"?>
<svg
   viewBox="0 0 160 160"
   version="1.1"
   id="svg1953"
   sodipodi:docname="invoices2-signet-black.svg"
   inkscape:version="1.2.2 (b0a84865, 2022-12-01)"
   xmlns:inkscape="http://www.inkscape.org/namespaces/inkscape"
   xmlns:sodipodi="http://sodipodi.sourceforge.net/DTD/sodipodi-0.dtd"
   xmlns="http://www.w3.org/2000/svg"
   xmlns:svg="http://www.w3.org/2000/svg"
   xmlns:rdf="http://www.w3.org/1999/02/22-rdf-syntax-ns#"
   xmlns:cc="http://creativecommons.org/ns#"
   xmlns:dc="http://purl.org/dc/elements/1.1/">
  <sodipodi:namedview
     id="namedview1955"
     pagecolor="#ffffff"
     bordercolor="#000000"
     borderopacity="0.25"
     inkscape:showpageshadow="2"
     inkscape:pageopacity="0.0"
     inkscape:pagecheckerboard="0"
     inkscape:deskcolor="#d1d1d1"
     showgrid="false"
     inkscape:zoom="4.98125"
     inkscape:cx="57.214555"
     inkscape:cy="80.301129"
     inkscape:window-width="1424"
     inkscape:window-height="844"
     inkscape:window-x="0"
     inkscape:window-y="38"
     inkscape:window-maximized="0"
     inkscape:current-layer="g1950" />
  <defs
     id="defs1942">
    <style
       id="style1940">
      .cls-1 {
        fill: #fff;
      }
    </style>
  </defs>
  <title
     id="title1944">signet_white</title>
  <g
     id="Warstwa_1"
     data-name="Warstwa 1"
     style="fill:#000000">
    <g
       id="g1950"
       style="fill:#000000">
      <path
         class="cls-1"
         d="M 125,47.091 86,24.5743 a 12,12 0 0 0 -12,0 L 35,47.091 a 12.0336,12.0336 0 0 0 -6,10.3923 v 45.0334 a 12.0335,12.0335 0 0 0 6,10.3923 l 39,22.5166 a 11.9993,11.9993 0 0 0 12,0 l 39,-22.5166 a 12.0335,12.0335 0 0 0 6,-10.3923 V 57.4833 A 12.0336,12.0336 0 0 0 125,47.091 Z m -2,55.4257 a 4,4 0 0 1 -2,3.464 l -39,22.5167 a 4,4 0 0 1 -4,0 L 39,105.9807 a 4,4 0 0 1 -2,-3.464 V 57.4833 a 4,4 0 0 1 2,-3.4641 L 78,31.5025 a 4,4 0 0 1 4,0 l 39,22.5167 a 4,4 0 0 1 2,3.4641 z"
         id="path1946"
         style="fill:#2b0000" />
      <text
         xml:space="preserve"
         style="font-style:normal;font-variant:normal;font-weight:normal;font-stretch:normal;font-size:48px;font-family:Montserrat;-inkscape-font-specification:Montserrat;fill:#2b0000;fill-opacity:1"
         x="41.054802"
         y="95.996994"
         id="text1869"><tspan
           sodipodi:role="line"
           id="tspan1867"
           x="41.054802"
           y="95.996994"
           style="font-style:normal;font-variant:normal;font-weight:bold;font-stretch:normal;font-size:48px;font-family:Montserrat;-inkscape-font-specification:'Montserrat Bold';fill:#2b0000">Inv</tspan></text>
    </g>
  </g>
  <metadata
     id="metadata1952">
    <rdf:RDF>
      <cc:Work
         rdf:about="">
        <dc:title>signet_white</dc:title>
      </cc:Work>
    </rdf:RDF>
  </metadata>
</svg>
